<svg width="1652" height="993" xmlns="http://www.w3.org/2000/svg" xmlns:xlink="http://www.w3.org/1999/xlink" overflow="hidden"><defs><clipPath id="clip0"><rect x="1292" y="339" width="1652" height="993"/></clipPath><clipPath id="clip1"><rect x="1292" y="340" width="1650" height="990"/></clipPath><clipPath id="clip2"><rect x="1292" y="340" width="1650" height="990"/></clipPath><clipPath id="clip3"><rect x="1397" y="534" width="1493" height="583"/></clipPath><clipPath id="clip4"><rect x="1397" y="534" width="1493" height="583"/></clipPath><clipPath id="clip5"><rect x="1292" y="340" width="1650" height="990"/></clipPath><clipPath id="clip6"><rect x="1292" y="340" width="1650" height="990"/></clipPath><clipPath id="clip7"><rect x="1292" y="340" width="1650" height="990"/></clipPath><clipPath id="clip8"><rect x="1292" y="340" width="1650" height="990"/></clipPath><clipPath id="clip9"><rect x="1292" y="340" width="1650" height="990"/></clipPath><clipPath id="clip10"><rect x="1292" y="340" width="1650" height="990"/></clipPath><clipPath id="clip11"><rect x="1292" y="340" width="1650" height="990"/></clipPath><clipPath id="clip12"><rect x="1292" y="340" width="1650" height="990"/></clipPath><clipPath id="clip13"><rect x="1292" y="340" width="1650" height="990"/></clipPath><clipPath id="clip14"><rect x="1292" y="340" width="1650" height="990"/></clipPath><clipPath id="clip15"><rect x="1292" y="340" width="1650" height="990"/></clipPath><clipPath id="clip16"><rect x="1292" y="340" width="1650" height="990"/></clipPath><clipPath id="clip17"><rect x="1292" y="340" width="1650" height="990"/></clipPath><clipPath id="clip18"><rect x="1292" y="340" width="1650" height="990"/></clipPath><clipPath id="clip19"><rect x="1292" y="340" width="1650" height="990"/></clipPath><clipPath id="clip20"><rect x="1292" y="340" width="1650" height="990"/></clipPath><clipPath id="clip21"><rect x="1292" y="340" width="1650" height="990"/></clipPath><clipPath id="clip22"><rect x="1292" y="340" width="1650" height="990"/></clipPath><clipPath id="clip23"><rect x="1292" y="340" width="1650" height="990"/></clipPath><clipPath id="clip24"><rect x="1292" y="340" width="1650" height="990"/></clipPath></defs><g clip-path="url(#clip0)" transform="translate(-1292 -339)"><rect x="1293" y="340" width="1649" height="990" fill="#FFFFFF"/><g clip-path="url(#clip1)"><path d="M1397.5 1017.53 2887.5 1017.53M1397.5 921.53 2887.5 921.53M1397.5 824.527 2887.5 824.527M1397.5 728.524 2887.5 728.524M1397.5 631.521 2887.5 631.521M1397.5 534.5 2887.5 534.5" stroke="#D9D9D9" stroke-width="3.4375" stroke-linejoin="round" stroke-miterlimit="10" fill="none"/></g><g clip-path="url(#clip2)"><path d="M1397.5 1114.5 2887.5 1114.5" stroke="#D9D9D9" stroke-width="3.4375" stroke-linejoin="round" stroke-miterlimit="10" fill="none" fill-rule="evenodd"/></g><g clip-path="url(#clip3)"><path d="M1504 670.022 1717.06 631.021 1930.06 631.021 2143.07 728.024 2355.08 593 2568.08 767 2781 709.023" stroke="#4472C4" stroke-width="10.3125" stroke-linecap="round" stroke-linejoin="round" stroke-miterlimit="10" fill="none"/></g><g clip-path="url(#clip4)"><path d="M1504 786.026 1717.06 825.027 1930.06 767 2143.07 786.026 2355.08 786.026 2568.08 825.027 2781 863" stroke="#ED7D31" stroke-width="10.3125" stroke-linecap="round" stroke-linejoin="round" stroke-miterlimit="10" fill="none"/></g><g clip-path="url(#clip5)"><text fill="#595959" font-family="Calibri,Calibri_MSFontService,sans-serif" font-weight="400" font-size="41" transform="matrix(1 0 0 1 1338.61 1126)">0</text></g><g clip-path="url(#clip6)"><text fill="#595959" font-family="Calibri,Calibri_MSFontService,sans-serif" font-weight="400" font-size="41" transform="matrix(1 0 0 1 1338.61 1029)">5</text></g><g clip-path="url(#clip7)"><text fill="#595959" font-family="Calibri,Calibri_MSFontService,sans-serif" font-weight="400" font-size="41" transform="matrix(1 0 0 1 1317.71 933)">10</text></g><g clip-path="url(#clip8)"><text fill="#595959" font-family="Calibri,Calibri_MSFontService,sans-serif" font-weight="400" font-size="41" transform="matrix(1 0 0 1 1317.71 836)">15</text></g><g clip-path="url(#clip9)"><text fill="#595959" font-family="Calibri,Calibri_MSFontService,sans-serif" font-weight="400" font-size="41" transform="matrix(1 0 0 1 1317.71 740)">20</text></g><g clip-path="url(#clip10)"><text fill="#595959" font-family="Calibri,Calibri_MSFontService,sans-serif" font-weight="400" font-size="41" transform="matrix(1 0 0 1 1317.71 643)">25</text></g><g clip-path="url(#clip11)"><text fill="#595959" font-family="Calibri,Calibri_MSFontService,sans-serif" font-weight="400" font-size="41" transform="matrix(1 0 0 1 1317.71 546)">30</text></g><g clip-path="url(#clip12)"><text fill="#595959" font-family="Calibri,Calibri_MSFontService,sans-serif" font-weight="400" font-size="41" transform="matrix(1 0 0 1 1493.73 1180)">1</text></g><g clip-path="url(#clip13)"><text fill="#595959" font-family="Calibri,Calibri_MSFontService,sans-serif" font-weight="400" font-size="41" transform="matrix(1 0 0 1 1706.55 1180)">2</text></g><g clip-path="url(#clip14)"><text fill="#595959" font-family="Calibri,Calibri_MSFontService,sans-serif" font-weight="400" font-size="41" transform="matrix(1 0 0 1 1919.37 1180)">3</text></g><g clip-path="url(#clip15)"><text fill="#595959" font-family="Calibri,Calibri_MSFontService,sans-serif" font-weight="400" font-size="41" transform="matrix(1 0 0 1 2132.19 1180)">4</text></g><g clip-path="url(#clip16)"><text fill="#595959" font-family="Calibri,Calibri_MSFontService,sans-serif" font-weight="400" font-size="41" transform="matrix(1 0 0 1 2345.01 1180)">5</text></g><g clip-path="url(#clip17)"><text fill="#595959" font-family="Calibri,Calibri_MSFontService,sans-serif" font-weight="400" font-size="41" transform="matrix(1 0 0 1 2557.82 1180)">6</text></g><g clip-path="url(#clip18)"><text fill="#595959" font-family="Calibri,Calibri_MSFontService,sans-serif" font-weight="400" font-size="41" transform="matrix(1 0 0 1 2770.64 1180)">7</text></g><g clip-path="url(#clip19)"><text fill="#595959" font-family="Yu Gothic,Yu Gothic_MSFontService,sans-serif" font-weight="400" font-size="64" transform="matrix(1 0 0 1 1885.66 451)">グラフ</text></g><g clip-path="url(#clip20)"><text fill="#595959" font-family="Yu Gothic,Yu Gothic_MSFontService,sans-serif" font-weight="400" font-size="64" transform="matrix(1 0 0 1 2092.67 451)">タイトル</text></g><g clip-path="url(#clip21)"><path d="M1927 1264 2015 1264" stroke="#4472C4" stroke-width="10.3125" stroke-linecap="round" stroke-linejoin="round" stroke-miterlimit="10" fill="none" fill-rule="evenodd"/></g><g clip-path="url(#clip22)"><text fill="#595959" font-family="Yu Gothic,Yu Gothic_MSFontService,sans-serif" font-weight="400" font-size="41" transform="matrix(1 0 0 1 2023.89 1276)">最低</text></g><g clip-path="url(#clip23)"><path d="M2145 1264 2233 1264" stroke="#ED7D31" stroke-width="10.3125" stroke-linecap="round" stroke-linejoin="round" stroke-miterlimit="10" fill="none" fill-rule="evenodd"/></g><g clip-path="url(#clip24)"><text fill="#595959" font-family="Yu Gothic,Yu Gothic_MSFontService,sans-serif" font-weight="400" font-size="41" transform="matrix(1 0 0 1 2242.05 1276)">最高</text></g><rect x="1293.5" y="340.5" width="1649" height="990" stroke="#D9D9D9" stroke-width="3.4375" stroke-linejoin="round" stroke-miterlimit="10" fill="none"/></g></svg>